<?xml version="1.0" standalone="no"?>
<!DOCTYPE svg PUBLIC "-//W3C//DTD SVG 20010904//EN"
 "http://www.w3.org/TR/2001/REC-SVG-20010904/DTD/svg10.dtd">
<svg version="1.0" xmlns="http://www.w3.org/2000/svg"
 width="512.000000pt" height="512.000000pt" viewBox="0 0 512.000000 512.000000"
 preserveAspectRatio="xMidYMid meet">

<g transform="translate(0.000000,512.000000) scale(0.100000,-0.100000)"
fill="#000000" stroke="none">
<path d="M2558 4792 c-1 -5 -223 -180 -493 -388 -269 -209 -689 -535 -933
-725 -244 -189 -478 -370 -520 -403 -42 -32 -78 -62 -80 -67 -2 -5 53 -9 123
-9 l126 0 60 40 c32 23 59 37 59 33 0 -4 -9 -51 -20 -103 -93 -449 -9 -948
225 -1335 262 -435 667 -725 1151 -827 147 -31 456 -33 609 -4 523 97 977 440
1227 927 83 160 136 313 175 505 24 118 27 149 27 359 0 194 -4 246 -21 330
-12 55 -19 102 -18 104 2 1 14 -4 27 -13 17 -12 47 -16 125 -16 57 0 103 4
103 8 0 5 -19 24 -42 42 -24 19 -239 194 -478 389 -239 196 -619 506 -845 690
-225 184 -447 365 -492 403 -85 71 -89 73 -95 60z m757 -886 l730 -522 22 -75
c169 -549 59 -1134 -298 -1585 -77 -97 -236 -244 -344 -316 -469 -314 -1029
-352 -1530 -103 -389 194 -684 547 -821 985 -55 177 -68 270 -68 500 -1 186 2
230 22 330 28 135 77 293 98 314 8 8 58 45 112 81 53 36 140 96 192 132 52 36
194 134 315 218 121 84 353 245 515 358 162 113 302 205 310 206 8 0 343 -235
745 -523z"/>
<path d="M2760 3864 c-160 -27 -232 -51 -280 -90 -16 -14 -50 -56 -75 -93 -82
-125 -160 -177 -318 -212 -134 -31 -137 -33 -137 -127 1 -167 55 -293 156
-363 49 -33 156 -79 186 -79 30 0 20 -18 -21 -39 -87 -45 -128 -115 -200 -346
-43 -136 -74 -182 -178 -263 -170 -131 -205 -173 -219 -260 -7 -44 12 -179 27
-188 20 -12 -5 -24 -52 -24 -110 0 -191 82 -192 195 -1 64 24 111 69 132 34
17 35 17 60 -11 29 -30 47 -30 52 1 5 35 -42 63 -104 63 -45 0 -59 -5 -88 -30
-91 -81 -88 -279 7 -374 70 -70 105 -76 423 -76 167 0 275 4 279 10 10 16 -14
49 -48 66 -18 9 -33 18 -35 19 -2 2 4 25 14 52 19 55 15 100 -16 151 -18 30
-79 76 -88 67 -2 -2 8 -33 22 -69 14 -35 26 -74 26 -85 0 -53 -48 -101 -117
-116 -97 -20 -185 115 -154 233 15 54 55 99 155 175 139 105 155 130 216 332
42 141 91 236 144 280 56 46 145 91 195 100 23 4 39 11 35 16 -3 5 -23 6 -45
3 -53 -9 -51 7 9 80 56 69 96 96 114 78 17 -17 22 -123 8 -167 -11 -32 -10
-39 8 -58 48 -53 132 -195 132 -223 l-1 -29 -14 32 c-17 40 -110 179 -142 214
-24 26 -24 27 -8 75 17 49 13 118 -7 130 -10 6 -88 -63 -88 -78 0 -4 8 -8 19
-8 28 0 42 -23 35 -57 -5 -27 -11 -31 -51 -37 -60 -8 -157 -61 -194 -105 -24
-29 -57 -104 -108 -245 -5 -12 3 -40 22 -77 47 -94 84 -98 249 -28 86 37 69
39 176 -21 46 -25 49 -30 20 -30 -16 0 -38 13 -57 32 l-31 32 -46 -20 c-64
-26 -87 -69 -79 -144 3 -30 9 -77 12 -103 6 -54 -8 -120 -38 -181 -63 -127
-88 -253 -57 -284 12 -12 139 -17 151 -6 11 11 -23 64 -49 76 -38 18 -39 47 0
145 52 134 60 174 51 256 -15 129 -12 164 12 189 22 22 23 22 70 5 27 -9 56
-17 66 -17 25 0 71 34 98 71 20 29 21 34 9 84 -10 40 -10 64 -2 95 13 51 3 76
-67 178 l-51 74 0 91 c0 100 -19 159 -53 165 -17 4 -86 -59 -144 -130 -20 -24
-25 -25 -62 -17 -94 21 -210 78 -268 131 -19 18 -21 28 -16 67 7 54 23 88 53
116 31 28 52 73 45 96 -4 11 -17 27 -31 35 -26 18 -23 34 7 34 35 0 140 49
185 85 24 20 58 57 75 83 72 107 117 139 236 166 97 22 207 21 258 -3 82 -37
240 -209 298 -325 39 -76 54 -167 37 -226 -15 -58 -83 -124 -170 -167 -115
-56 -213 -53 -264 8 -22 25 -26 41 -26 90 0 33 4 59 10 59 6 0 10 -13 10 -30
0 -73 58 -120 149 -120 104 0 228 85 251 171 27 99 -33 246 -151 373 -88 95
-166 136 -267 144 -129 9 -224 -35 -323 -149 -62 -71 -139 -131 -214 -165 -51
-24 -54 -26 -43 -49 15 -33 -11 -90 -63 -141 -44 -43 -48 -60 -18 -97 25 -33
172 -107 226 -114 37 -5 45 -1 103 45 34 28 92 63 129 78 36 15 74 36 83 46 9
10 31 60 49 110 33 92 83 178 107 186 9 3 5 -13 -11 -44 -46 -92 -79 -213 -84
-314 -5 -93 -5 -96 22 -128 43 -51 80 -66 163 -66 l72 1 -6 -48 c-9 -65 23
-155 86 -244 142 -201 190 -318 198 -481 6 -126 -13 -194 -70 -259 -122 -138
-309 -147 -447 -21 -55 51 -74 105 -66 190 3 39 13 95 21 125 8 29 13 56 10
58 -3 3 -17 -2 -30 -11 -33 -21 -66 -127 -66 -210 0 -72 21 -152 50 -189 11
-14 20 -29 20 -34 0 -4 -19 -17 -42 -28 -42 -20 -84 -77 -72 -97 3 -4 224 -8
492 -8 l487 0 50 24 c66 31 121 88 156 161 25 51 29 72 29 142 0 176 -78 282
-207 283 -50 0 -97 -37 -107 -83 -7 -30 16 -48 39 -31 64 47 61 47 99 29 20
-10 46 -34 58 -54 44 -70 21 -219 -45 -289 -48 -52 -86 -62 -227 -62 -71 0
-130 3 -130 6 0 3 15 24 34 47 57 71 78 130 83 238 9 158 -36 276 -189 494
-46 66 -93 136 -105 155 -22 36 -53 131 -53 161 0 31 47 74 124 112 151 76
204 195 161 362 -46 174 -217 387 -370 460 -50 23 -145 37 -195 29z m-43
-1316 c-3 -8 -6 -5 -6 6 -1 11 2 17 5 13 3 -3 4 -12 1 -19z"/>
<path d="M415 2759 c-11 -39 -25 -75 -32 -81 -7 -5 -42 -8 -78 -6 -36 1 -65 0
-65 -3 0 -3 27 -25 60 -49 33 -24 60 -44 60 -45 0 -1 -11 -35 -25 -75 -14 -40
-25 -75 -25 -77 0 -2 27 16 59 41 33 25 63 46 68 46 4 0 34 -20 66 -45 31 -25
57 -41 57 -35 0 6 -9 36 -20 67 -11 32 -20 63 -20 70 0 7 27 33 61 58 l60 44
-78 3 -78 3 -20 72 c-12 40 -23 74 -26 77 -3 3 -14 -26 -24 -65z"/>
<path d="M4670 2744 l-25 -79 -73 -5 -73 -5 56 -43 c30 -24 55 -49 55 -56 0
-7 -9 -39 -20 -71 -11 -32 -20 -62 -20 -66 0 -5 27 11 59 36 33 25 63 45 67
45 4 0 34 -21 66 -46 58 -46 59 -46 52 -18 -4 16 -13 46 -21 68 -7 21 -13 45
-13 52 0 8 25 33 55 57 l55 42 -73 5 -72 5 -25 79 -26 78 -24 -78z"/>
<path d="M720 2114 c-47 -25 -165 -86 -262 -136 -98 -49 -178 -96 -178 -103 0
-20 57 -140 73 -154 13 -10 33 -2 118 43 56 31 103 55 105 53 1 -1 -33 -39
-77 -84 -43 -45 -79 -88 -79 -96 0 -21 50 -107 62 -107 5 0 55 11 110 25 55
14 102 24 105 21 2 -2 -39 -30 -92 -61 -53 -31 -99 -63 -102 -71 -5 -13 67
-147 86 -159 8 -4 489 290 514 314 14 14 -80 191 -101 191 -9 0 -75 -11 -146
-25 -71 -14 -131 -23 -134 -21 -2 3 36 49 85 103 49 54 94 105 101 115 11 14
6 30 -33 107 -25 50 -51 91 -58 91 -6 0 -50 -21 -97 -46z"/>
<path d="M4449 2102 c-72 -46 -119 -133 -119 -221 0 -106 44 -169 123 -178 62
-7 106 17 173 93 31 35 60 61 66 58 13 -8 -17 -51 -64 -94 l-39 -35 20 -42
c12 -23 21 -46 21 -51 0 -5 9 -17 19 -26 18 -17 21 -17 55 -1 82 39 146 145
153 255 4 53 1 71 -17 98 -20 33 -87 71 -123 72 -35 0 -91 -34 -159 -98 -80
-76 -94 -60 -16 17 l52 51 -32 65 c-37 75 -47 78 -113 37z"/>
<path d="M4233 1722 c-16 -21 -37 -55 -48 -76 l-20 -37 32 -61 c18 -34 31 -64
28 -66 -2 -2 -52 39 -111 92 -59 53 -116 96 -125 96 -18 0 -99 -122 -99 -147
0 -14 527 -433 544 -433 20 0 105 109 106 136 0 6 -18 24 -40 39 -22 15 -40
32 -40 36 0 5 19 9 43 9 23 0 52 3 65 6 26 8 116 139 108 160 -4 10 -36 14
-128 16 l-123 3 -55 106 c-65 125 -87 159 -100 159 -6 0 -22 -17 -37 -38z"/>
<path d="M1001 1420 c-58 -21 -68 -27 -125 -79 -62 -58 -88 -107 -94 -177 -4
-51 0 -71 20 -115 33 -72 67 -111 123 -140 l46 -24 39 45 c22 25 40 48 40 52
0 4 -22 22 -49 39 -51 34 -81 73 -81 107 0 35 19 35 48 0 15 -18 41 -48 58
-67 l31 -34 46 22 c98 47 168 166 145 248 -14 54 -54 102 -102 124 -52 23 -77
23 -145 -1z m83 -163 c22 -16 18 -55 -6 -71 -15 -9 -24 -5 -49 21 l-32 31 29
16 c36 19 36 19 58 3z"/>
<path d="M3957 1352 c-9 -9 -24 -37 -35 -60 -16 -37 -21 -40 -32 -27 -7 8 -19
15 -27 15 -25 0 -124 -91 -121 -111 4 -23 328 -377 346 -378 21 -1 112 80 118
106 5 19 -10 40 -85 119 -106 112 -110 127 -56 198 19 26 35 49 35 52 0 2 -21
27 -46 54 -50 53 -71 60 -97 32z"/>
<path d="M1260 1148 c-11 -24 -53 -122 -94 -218 -53 -127 -71 -179 -63 -188
13 -16 140 -102 151 -102 5 0 37 23 72 50 35 28 68 50 74 50 5 0 7 -12 4 -27
-19 -107 -20 -153 -5 -166 28 -24 142 -87 156 -87 14 0 275 361 275 380 0 12
-119 100 -136 100 -7 0 -38 -39 -70 -86 -32 -47 -60 -81 -62 -76 -2 6 7 42 18
81 12 38 19 75 15 81 -3 5 -31 26 -62 46 l-56 35 -45 -43 c-26 -24 -52 -51
-60 -60 -33 -44 -27 -10 13 74 25 50 45 97 45 103 0 14 -117 95 -137 95 -7 0
-22 -19 -33 -42z"/>
<path d="M3582 1017 c-91 -47 -133 -111 -134 -205 -1 -89 23 -92 106 -14 25
24 46 51 46 61 0 39 40 53 71 25 17 -16 15 -18 -39 -53 -71 -47 -118 -99 -133
-151 -10 -33 -9 -46 5 -85 40 -103 139 -119 256 -40 43 29 54 33 70 22 21 -12
55 1 109 42 l25 19 -29 68 c-69 162 -140 289 -174 311 -45 31 -120 31 -179 0z
m172 -293 c4 -14 2 -32 -4 -39 -29 -35 -96 -13 -68 24 35 47 63 53 72 15z"/>
<path d="M3075 963 c-43 -5 -161 -32 -222 -49 -32 -9 -53 -21 -53 -30 0 -11
-18 -14 -84 -14 -47 0 -87 -4 -90 -8 -3 -5 -6 -70 -7 -146 -1 -75 -5 -139 -9
-141 -4 -3 -33 57 -64 133 -31 75 -60 143 -65 150 -9 14 -160 28 -177 15 -8
-5 -14 -108 -19 -322 -6 -259 -5 -315 6 -322 16 -10 99 -10 144 0 34 7 32 -2
34 171 1 106 3 122 15 110 7 -8 18 -28 24 -45 6 -16 27 -68 47 -115 20 -47 41
-95 46 -108 8 -22 13 -23 96 -20 l88 3 6 100 c4 55 7 187 8 293 1 118 5 192
11 192 5 0 12 -12 16 -27 22 -101 138 -553 145 -564 6 -10 30 -6 115 20 179
54 274 113 315 192 37 74 13 171 -55 217 l-34 23 19 42 c10 23 19 53 19 66 1
85 -62 161 -149 180 -52 11 -69 12 -126 4z m69 -182 c10 -11 16 -28 14 -37 -4
-22 -69 -68 -78 -57 -6 7 -30 92 -30 107 0 3 17 6 38 6 26 0 45 -7 56 -19z
m60 -247 c9 -8 16 -24 16 -35 0 -23 -42 -69 -63 -69 -14 0 -50 97 -41 112 9
14 72 9 88 -8z"/>
<path d="M1946 829 c-77 -19 -126 -74 -126 -144 0 -73 28 -109 165 -209 11 -8
16 -18 12 -22 -10 -11 -69 22 -103 57 l-27 28 -58 -40 c-40 -27 -59 -46 -59
-60 0 -11 24 -44 53 -73 62 -62 121 -86 215 -86 59 0 67 3 97 33 18 18 39 52
46 75 23 79 -7 133 -131 234 -25 20 -42 39 -38 43 9 9 43 -10 89 -52 l39 -36
38 27 c20 14 48 35 62 46 l25 19 -20 36 c-50 94 -175 150 -279 124z"/>
</g>
</svg>
